HIERARCHY
ROOT ui
{
	 OFFSET 0 0 0
	 CHANNELS 3 XPosition YPosition Z Position
	 EndSite
	 {
	 OFFSET 0 -1 0
	 }
}
ROOT li
{
	 OFFSET 0 0 0
	 CHANNELS 3 XPosition YPosition Z Position
	 EndSite
	 {
	 OFFSET 0 -1 0
	 }
}
ROOT ul
{
	 OFFSET 0 0 0
	 CHANNELS 3 XPosition YPosition Z Position
	 EndSite
	 {
	 OFFSET 0 -1 0
	 }
}
ROOT ll
{
	 OFFSET 0 0 0
	 CHANNELS 3 XPosition YPosition Z Position
	 EndSite
	 {
	 OFFSET 0 -1 0
	 }
}
ROOT tt
{
	 OFFSET 0 0 0
	 CHANNELS 3 XPosition YPosition Z Position
	 EndSite
	 {
	 OFFSET 0 -1 0
	 }
}
ROOT tb
{
	 OFFSET 0 0 0
	 CHANNELS 3 XPosition YPosition Z Position
	 EndSite
	 {
	 OFFSET 0 -1 0
	 }
}
ROOT td
{
	 OFFSET 0 0 0
	 CHANNELS 3 XPosition YPosition Z Position
	 EndSite
	 {
	 OFFSET 0 -1 0
	 }
}
ROOT v
{
	 OFFSET 0 0 0
	 CHANNELS 3 XPosition YPosition Z Position
	 EndSite
	 {
	 OFFSET 0 -1 0
	 }
}
ROOT bn
{
	 OFFSET 0 0 0
	 CHANNELS 3 XPosition YPosition Z Position
	 EndSite
	 {
	 OFFSET 0 -1 0
	 }
}
MOTION
Frames: 21
Frame Time: 0.002
0.011968583106994628	-0.0010521700382232666	0		0.5559183349609375	-2.389754150390625	0		-1.059289794921875	0.046006988525390625	0		-0.66907177734375	-2.61958935546875	0		1.7277469482421874	-0.6124967041015625	0		3.290133056640625	-0.17256137084960937	0		4.58023291015625	0.061934814453125	0		5.705861328125	0.27812359619140625	0		-0.18130145263671876	5.91517919921875	0		
0.09101834869384766	0.004702425956726074	0		0.5440886840820313	-2.3761318359375	0		-1.0613046875	0.04944035339355469	0		-0.7158137817382813	-2.601236083984375	0		1.72472607421875	-0.6090687255859375	0		3.288342529296875	-0.15817086791992188	0		4.57825927734375	0.06731520080566407	0		5.70448193359375	0.2908735046386719	0		-0.1731403045654297	5.92439697265625	0		
0.022269405364990235	0.012509363174438477	0		0.5610603637695313	-2.382096435546875	0		-0.9942470703125	0.0464544563293457	0		-0.6539147338867187	-2.611119384765625	0		1.74576904296875	-0.612123291015625	0		3.28222900390625	-0.16867671203613283	0		4.57547607421875	0.07273660278320312	0		5.70323828125	0.30366519165039063	0		-0.19321511840820313	5.91419970703125	0		
0.07640268707275391	7.981209754943847E-4	0		0.5284127197265625	-2.382018798828125	0		-1.07285888671875	0.048482967376708985	0		-0.6975811767578125	-2.611812255859375	0		1.74011962890625	-0.6126045532226563	0		3.2948857421875	-0.15453541564941406	0		4.576703125	0.06610603332519531	0		5.706326171875	0.3007313232421875	0		-0.19884979248046875	5.91372314453125	0		
0.06392477798461914	-0.006516642093658447	0		0.5490135498046875	-2.386013671875	0		-1.009311767578125	0.041600677490234376	0		-0.6689817504882812	-2.615973388671875	0		1.728621826171875	-0.6209373168945312	0		3.256475341796875	-0.1583107452392578	0		4.56341064453125	0.06781627655029297	0		5.69243505859375	0.28833978271484373	0		-0.2051724853515625	5.91428271484375	0		
0.05221110153198242	0.006186079978942871	0		0.5289840698242188	-2.389140380859375	0		-1.0773021240234375	0.041454174041748046	0		-0.7376907348632813	-2.603100341796875	0		1.6967095947265625	-0.6178121948242188	0		3.251493408203125	-0.15873326110839844	0		4.55950927734375	0.0713789291381836	0		5.69663720703125	0.27686004638671874	0		-0.20920611572265624	5.912822265625	0		
0.07249613952636719	2.6026999950408934E-4	0		0.5305203247070313	-2.383673095703125	0		-1.0755810546875	0.056905242919921876	0		-0.6944909057617188	-2.61450537109375	0		1.689314697265625	-0.6081505737304688	0		3.270615234375	-0.17260908508300782	0		4.559736328125	0.06290447616577148	0		5.69977001953125	0.2759101867675781	0		-0.19770271301269532	5.92007666015625	0		
0.01034877872467041	0.004071818828582764	0		0.5134334716796874	-2.3787822265625	0		-1.09200634765625	0.04675930404663086	0		-0.7115543823242187	-2.608629638671875	0		1.720990234375	-0.6142515869140625	0		3.2467705078125	-0.15454377746582032	0		4.561677734375	0.0704526138305664	0		5.696267578125	0.30134796142578124	0		-0.21815690612792968	5.91202294921875	0		
0.05647806167602539	0.0016970969438552857	0		0.5325225830078125	-2.384593505859375	0		-1.0958465576171874	0.046395408630371095	0		-0.7282074584960937	-2.601721923828125	0		1.710996826171875	-0.622447509765625	0		3.242933349609375	-0.15484140014648437	0		4.5488798828125	0.07235967254638671	0		5.68760498046875	0.27523651123046877	0		-0.2220867462158203	5.9116728515625	0		
-0.03213895034790039	-0.00486348819732666	0		0.5021007995605469	-2.38433837890625	0		-1.0993179931640624	0.04606645965576172	0		-0.7218385009765625	-2.61224755859375	0		1.7075374755859376	-0.6227257080078125	0		3.23536376953125	-0.1600087127685547	0		4.53541015625	0.072338134765625	0		5.68810009765625	0.28857290649414064	0		-0.2266434326171875	5.9123798828125	0		
0.03295239639282226	0.004470387935638428	0		0.5099039306640625	-2.390820556640625	0		-1.1024390869140626	0.045776138305664064	0		-0.7567549438476563	-2.604875	0		1.67133447265625	-0.627280517578125	0		3.25618017578125	-0.16370230102539063	0		4.53712353515625	0.06406202697753906	0		5.6858759765625	0.2883087463378906	0		-0.2289051055908203	5.9110869140625	0		
-0.0376597671508789	0.013639632225036622	0		0.500393798828125	-2.3798916015625	0		-1.0930279541015624	0.055279937744140625	0		-0.7225360107421875	-2.607873291015625	0		1.7047349853515625	-0.6192066650390625	0		3.22770654296875	-0.14832359313964844	0		4.532619140625	0.07797755432128907	0		5.68455615234375	0.28291470336914065	0		-0.21762506103515625	5.9205693359375	0		
0.04461544418334961	7.235159873962403E-4	0		0.5566078491210937	-2.398261474609375	0		-1.1077130126953125	0.045324714660644534	0		-0.761907470703125	-2.605310546875	0		1.6602359619140625	-0.6204835815429688	0		3.241754150390625	-0.17176829528808593	0		4.53497119140625	0.0698060531616211	0		5.6850732421875	0.3000270080566406	0		-0.2344474182128906	5.91067578125	0		
-0.0494566535949707	0.007474167823791504	0		0.4937708740234375	-2.38313427734375	0		-1.1099075927734374	0.04516744232177734	0		-0.706009765625	-2.60464599609375	0		1.693947509765625	-0.6263096313476563	0		3.242870849609375	-0.15688571166992188	0		4.53277587890625	0.0697841339111328	0		5.6763935546875	0.30211807250976563	0		-0.2652063598632812	5.8901162109375	0		
0.020499786376953124	9.181860089302063E-4	0		0.515794189453125	-2.388697021484375	0		-1.1118349609375	0.04505582046508789	0		-0.7330117797851563	-2.611236083984375	0		1.6920361328125	-0.6263545532226562	0		3.222870361328125	-0.16052529907226562	0		4.537009765625	0.0776825180053711	0		5.67985205078125	0.2829285888671875	0		-0.37223037719726565	5.8931689453125	0		
-0.03920666122436523	6.051899865269661E-5	0		0.499114013671875	-2.391420166015625	0		-1.0976597900390626	0.037663082122802734	0		-0.7217742309570313	-2.61855859375	0		1.690373046875	-0.6263570556640625	0		3.21634033203125	-0.15339163208007814	0		4.52916845703125	0.06987030029296876	0		5.6857451171875	0.2775407409667969	0		-0.24066484069824218	5.91040087890625	0		
0.04043277359008789	0.0034065320491790774	0		0.5038442687988282	-2.385533447265625	0		-1.09096533203125	0.04447206878662109	0		-0.7628049926757813	-2.600764892578125	0		1.695083251953125	-0.6194432983398438	0		3.252625244140625	-0.16709085083007813	0		4.5318427734375	0.07589016723632812	0		5.68768359375	0.2914582824707031	0		-0.22608644104003905	5.91806640625	0		
-0.013826255798339843	0.00252276611328125	0		0.48977459716796873	-2.380222412109375	0		-1.103989501953125	0.054725101470947266	0		-0.6652593383789063	-2.615759033203125	0		1.68772705078125	-0.6262445678710937	0		3.22087451171875	-0.14335350036621095	0		4.52889697265625	0.09006857299804688	0		5.68976220703125	0.30371224975585936	0		-0.24263233947753907	5.909404296875	0		
0.032052909851074216	-0.0023626859188079835	0		0.4867403564453125	-2.383099853515625	0		-1.1172213134765625	0.045014827728271485	0		-0.781878173828125	-2.597349853515625	0		1.6867120361328125	-0.6261351318359375	0		3.2175029296875	-0.1601637420654297	0		4.5374970703125	0.07204535675048829	0		5.6860751953125	0.2920958862304687	0		-0.24478076171875	5.91048828125	0		
-0.018765916824340822	-2.473240047693253E-4	0		0.48594866943359377	-2.382988525390625	0		-1.112195068359375	0.03896648406982422	0		-0.7138007202148438	-2.60466943359375	0		1.679716552734375	-0.633871337890625	0		3.220758056640625	-0.15506857299804688	0		4.519771484375	0.07859882354736328	0		5.685470703125	0.2925043334960937	0		-0.2741943664550781	5.89015478515625	0		
0.023372465133666993	-0.008993066787719727	0		0.46919961547851563	-2.388525390625	0		-1.0947685546875	0.04469747924804687	0		-0.7724544677734375	-2.60538525390625	0		1.6852030029296876	-0.6258272705078125	0		3.244944580078125	-0.16136827087402345	0		4.53007666015625	0.0786144790649414	0		5.68497998046875	0.2929657897949219	0		-0.24563310241699218	5.9096806640625	0		
